# xmcd
# 
# Track frame offsets:
#     183
#     16250
#     32363
#     47925
#     61688
#     75598
#     92880
#     105825
#     124200
#     143933
# 
# Disc length: 2175
# 
# Revision: 2
# Processed by: cddbd v1.5.2PL0 Copyright (c) Steve Scherf et al.
# Submitted via: fre:ac v1.0.31
# 
DISCID=74087d0a
DTITLE=Joni Mitchell - Blue
DYEAR=1971
DGENRE=Folk
TTITLE0=All I Want
TTITLE1=My Old Man
TTITLE2=Little Green
TTITLE3=Carey
TTITLE4=Blue
TTITLE5=California
TTITLE6=This Flight Tonight
TTITLE7=River
TTITLE8=A Case of You
TTITLE9=The Last Time I Saw Richard
EXTD=
EXTT0=
EXTT1=
EXTT2=
EXTT3=
EXTT4=
EXTT5=
EXTT6=
EXTT7=
EXTT8=
EXTT9=
PLAYORDER=
